<?xml version="1.0" encoding="utf-8"?>
<!-- Generator: Adobe Illustrator 27.5.0, SVG Export Plug-In . SVG Version: 6.00 Build 0)  -->
<svg version="1.1" xmlns="http://www.w3.org/2000/svg" xmlns:xlink="http://www.w3.org/1999/xlink" x="0px" y="0px"
	 viewBox="0 0 500 500" style="enable-background:new 0 0 500 500;" xml:space="preserve">
<g id="BACKGROUND">
	<rect style="fill:#FFFFFF;" width="500" height="500"/>
</g>
<g id="OBJECTS">
	<g>
		<linearGradient id="SVGID_1_" gradientUnits="userSpaceOnUse" x1="245.2961" y1="520.4173" x2="244.6295" y2="179.7515">
			<stop  offset="0" style="stop-color:#00ACC1"/>
			<stop  offset="1" style="stop-color:#90F3BF;stop-opacity:0.3"/>
		</linearGradient>
		<path style="fill:url(#SVGID_1_);" d="M443.982,359.609c-3.334-20.449-8.664-44.02-16.881-59.63
			c-17.298-32.857-32.339-14.603-72.198,7.302c-39.859,21.905-26.322-144.815-72.198-180.106s-71.446,37.725-101.529,91.27
			c-30.083,53.545-43.62,27.989-84.983,15.82c-38.125-11.217-48.777,106.797-50.211,125.344H443.982z"/>
		<g>
			<rect x="242.64" y="131.898" style="fill:#FFB300;" width="8.167" height="18"/>
			<g>
				<rect x="236.807" y="147.232" style="fill:#FFA000;" width="20.667" height="5.333"/>
				<rect x="242.307" y="147.232" style="fill:#FFB300;" width="9.667" height="5.333"/>
			</g>
			<g>
				<rect x="225.973" y="152.565" style="fill:#FFA000;" width="42.333" height="3.833"/>
				<rect x="237.24" y="152.565" style="fill:#FFEF80;" width="19.801" height="3.833"/>
			</g>
			<path style="fill:#FF7D21;" d="M253.47,131.069c0.044-0.07,0.086-0.14,0.128-0.211c0.126-0.214,0.241-0.434,0.346-0.661
				c0.024-0.052,0.051-0.101,0.074-0.153c0.119-0.275,0.221-0.559,0.307-0.85c0.021-0.07,0.036-0.143,0.055-0.214
				c0.061-0.232,0.111-0.468,0.15-0.708c0.014-0.087,0.029-0.173,0.04-0.261c0.009-0.073,0.022-0.144,0.029-0.217h0.874v-1.892
				h-4.985h-6.696h-4.985v1.892h0.874c0.366,3.799,3.565,6.769,7.46,6.769c1.276,0,2.477-0.321,3.529-0.883l0.001,0.001
				c0.003-0.002,0.006-0.004,0.009-0.006c0.269-0.144,0.526-0.308,0.773-0.483c0.058-0.04,0.112-0.084,0.169-0.126
				c0.194-0.146,0.381-0.3,0.56-0.463c0.052-0.047,0.104-0.092,0.155-0.141c0.217-0.209,0.423-0.427,0.613-0.661
				c0.02-0.024,0.036-0.05,0.055-0.074C253.172,131.517,253.326,131.297,253.47,131.069z"/>
			<g>
				<path style="fill:#FFA000;" d="M281.473,93.065c0,18.962-15.371,34.333-34.333,34.333s-34.333-15.372-34.333-34.333H281.473z"/>
				<path style="fill:#FFB300;" d="M263.307,123.356c10.81-5.782,18.167-17.175,18.167-30.291H245.14
					C245.14,106.181,252.497,117.575,263.307,123.356z"/>
				<rect x="208.973" y="87.732" style="fill:#FFCB5D;" width="76.333" height="8.667"/>
				<rect x="231.807" y="87.732" style="fill:#FFEF80;" width="30.667" height="8.667"/>
			</g>
		</g>
		<g>
			<circle style="fill:#B84FFF;" cx="127.64" cy="208.232" r="4"/>
			<path style="fill:#B84FFF;" d="M405.807,272.732c0,1.841-1.492,3.333-3.333,3.333c-1.841,0-3.333-1.492-3.333-3.333
				c0-1.841,1.492-3.333,3.333-3.333C404.314,269.398,405.807,270.891,405.807,272.732z"/>
			<circle style="fill:#B84FFF;" cx="285.64" cy="137.232" r="2"/>
			<circle style="fill:#B84FFF;" cx="146.307" cy="176.565" r="2"/>
			
				<linearGradient id="SVGID_00000131350226740760207050000001675724493976524168_" gradientUnits="userSpaceOnUse" x1="375.6402" y1="170.2316" x2="383.6402" y2="170.2316">
				<stop  offset="0" style="stop-color:#1AE5FF"/>
				<stop  offset="1" style="stop-color:#EAEEEE"/>
			</linearGradient>
			<circle style="fill:url(#SVGID_00000131350226740760207050000001675724493976524168_);" cx="379.64" cy="170.232" r="4"/>
			
				<linearGradient id="SVGID_00000100361927322037158620000009896913747515165589_" gradientUnits="userSpaceOnUse" x1="317.1402" y1="141.565" x2="321.8069" y2="141.565">
				<stop  offset="0" style="stop-color:#1AE5FF"/>
				<stop  offset="1" style="stop-color:#EAEEEE"/>
			</linearGradient>
			<path style="fill:url(#SVGID_00000100361927322037158620000009896913747515165589_);" d="M321.807,141.565
				c0,1.289-1.045,2.333-2.333,2.333c-1.289,0-2.333-1.045-2.333-2.333c0-1.289,1.045-2.333,2.333-2.333
				C320.762,139.232,321.807,140.276,321.807,141.565z"/>
			
				<linearGradient id="SVGID_00000180327317080744378680000011430353002684859278_" gradientUnits="userSpaceOnUse" x1="71.1402" y1="276.7316" x2="75.8069" y2="276.7316">
				<stop  offset="0" style="stop-color:#1AE5FF"/>
				<stop  offset="1" style="stop-color:#EAEEEE"/>
			</linearGradient>
			<path style="fill:url(#SVGID_00000180327317080744378680000011430353002684859278_);" d="M75.807,276.732
				c0,1.289-1.045,2.333-2.333,2.333c-1.289,0-2.333-1.045-2.333-2.333s1.045-2.333,2.333-2.333
				C74.762,274.398,75.807,275.443,75.807,276.732z"/>
			
				<linearGradient id="SVGID_00000166670136387428757770000008418520852808829613_" gradientUnits="userSpaceOnUse" x1="390.8069" y1="309.2316" x2="395.4735" y2="309.2316">
				<stop  offset="0" style="stop-color:#1AE5FF"/>
				<stop  offset="1" style="stop-color:#EAEEEE"/>
			</linearGradient>
			<circle style="fill:url(#SVGID_00000166670136387428757770000008418520852808829613_);" cx="393.14" cy="309.232" r="2.333"/>
			
				<linearGradient id="SVGID_00000057834550502579050710000002160098432133890177_" gradientUnits="userSpaceOnUse" x1="150.4735" y1="223.2316" x2="155.1402" y2="223.2316">
				<stop  offset="0" style="stop-color:#1AE5FF"/>
				<stop  offset="1" style="stop-color:#EAEEEE"/>
			</linearGradient>
			<path style="fill:url(#SVGID_00000057834550502579050710000002160098432133890177_);" d="M155.14,223.232
				c0,1.289-1.045,2.333-2.333,2.333c-1.289,0-2.333-1.045-2.333-2.333s1.045-2.333,2.333-2.333
				C154.095,220.898,155.14,221.943,155.14,223.232z"/>
		</g>
		<g>
			<g>
				
					<linearGradient id="SVGID_00000040539989699795649230000000641911807500774821_" gradientUnits="userSpaceOnUse" x1="224.715" y1="340.9337" x2="200.7151" y2="175.6004">
					<stop  offset="0" style="stop-color:#3C0AFF"/>
					<stop  offset="1" style="stop-color:#B84FFF"/>
				</linearGradient>
				<path style="fill:url(#SVGID_00000040539989699795649230000000641911807500774821_);" d="M305.718,283.225H121.164
					c-4.925,0-8.918-3.993-8.918-8.918v-22.28c0-3.372,2.734-6.107,6.107-6.107h190.176c3.372,0,6.107,2.734,6.107,6.107v22.28
					C314.636,279.233,310.643,283.225,305.718,283.225z"/>
				<path style="fill:#8B39FF;" d="M309.983,283.225H116.899c-2.569,0-4.653-2.083-4.653-4.653v-6.203h202.389v6.203
					C314.636,281.142,312.553,283.225,309.983,283.225z"/>
				<g>
					<rect x="132.893" y="245.921" style="fill:#FFF5D4;" width="8.142" height="37.304"/>
					<rect x="132.893" y="272.369" style="fill:#E5D5B9;" width="8.142" height="10.856"/>
				</g>
				<g>
					<rect x="279.16" y="245.921" style="fill:#FFF5D4;" width="18.029" height="37.304"/>
					<rect x="279.16" y="272.369" style="fill:#E5D5B9;" width="18.029" height="10.856"/>
				</g>
				<g>
					<rect x="143.943" y="245.921" style="fill:#FFF5D4;" width="3.005" height="37.304"/>
					<rect x="143.943" y="272.369" style="fill:#E5D5B9;" width="3.005" height="10.856"/>
				</g>
				<rect x="159.354" y="257.69" style="fill:#FFF5D4;" width="109.337" height="9.832"/>
			</g>
			<g>
				
					<linearGradient id="SVGID_00000050646769174144049530000012703772840624585643_" gradientUnits="userSpaceOnUse" x1="192.8117" y1="281.0967" x2="191.4784" y2="370.43">
					<stop  offset="0" style="stop-color:#FE9300"/>
					<stop  offset="1" style="stop-color:#FEC800"/>
				</linearGradient>
				<path style="fill:url(#SVGID_00000050646769174144049530000012703772840624585643_);" d="M284.844,314.534H100.29
					c-4.925,0-8.917-3.992-8.917-8.918v-16.284c0-3.373,2.734-6.107,6.106-6.107h190.176c3.373,0,6.107,2.734,6.107,6.107v16.284
					C293.762,310.541,289.769,314.534,284.844,314.534z"/>
				<path style="fill:#FFCB5D;" d="M289.109,314.534H96.025c-2.57,0-4.653-2.083-4.653-4.653v-3.877h202.389v3.877
					C293.762,312.451,291.679,314.534,289.109,314.534z"/>
				<rect x="131.695" y="292.773" style="fill:#FFCB5D;" width="126.59" height="8.675"/>
			</g>
			<g>
				
					<linearGradient id="SVGID_00000163043257943512431900000016966788209079443900_" gradientUnits="userSpaceOnUse" x1="181.497" y1="374.4707" x2="174.4971" y2="280.971">
					<stop  offset="0" style="stop-color:#0067FF"/>
					<stop  offset="1" style="stop-color:#36FFFF"/>
				</linearGradient>
				<path style="fill:url(#SVGID_00000163043257943512431900000016966788209079443900_);" d="M99.23,350.64v-27.044
					c0-1.633,1.324-2.956,2.956-2.956h174.668c1.633,0,2.956-1.324,2.956-2.956v0c0-1.633-1.324-2.956-2.956-2.956H82.751
					c-2.944,0-5.331,2.387-5.331,5.331v34.119c0,2.944,2.387,5.331,5.331,5.331h194.102c1.633,0,2.956-1.324,2.956-2.956l0,0
					c0-1.633-1.324-2.956-2.956-2.956H102.186C100.553,353.596,99.23,352.273,99.23,350.64z"/>
				<path style="fill:#FFFFFF;" d="M274.382,353.596H95.352c-5.407,0-9.79-4.383-9.79-9.79V330.43c0-5.407,4.383-9.79,9.79-9.79
					h179.029V353.596z"/>
				<path style="fill:#F1EEEB;" d="M85.562,342.546v1.26c0,5.407,4.383,9.79,9.79,9.79h179.029v-11.05H85.562z"/>
			</g>
			<rect x="159.456" y="246.748" style="opacity:0.53;fill:#1AB8FF;" width="52.328" height="112.33"/>
			<g>
				<g>
					<path style="fill:#1AB8FF;" d="M338.94,359.427H199.051c-4.72,0-8.547-3.827-8.547-8.547V172.792
						c0-4.72,3.827-8.547,8.547-8.547H338.94c4.72,0,8.547,3.827,8.547,8.547V350.88C347.487,355.601,343.66,359.427,338.94,359.427
						z"/>
					<path style="fill:#F2F8FD;" d="M331.752,353.653H205.541c-4.259,0-7.711-3.452-7.711-7.711V177.556
						c0-4.259,3.452-7.711,7.711-7.711h126.211c4.259,0,7.711,3.452,7.711,7.711v168.387
						C339.463,350.201,336.011,353.653,331.752,353.653z"/>
					<rect x="286.438" y="169.844" style="fill:#DEEEE9;" width="42.56" height="183.809"/>
					
						<linearGradient id="SVGID_00000077285985362331312330000011920769674740319635_" gradientUnits="userSpaceOnUse" x1="297.3601" y1="550.7997" x2="243.3598" y2="167.4663">
						<stop  offset="0" style="stop-color:#00ACC1"/>
						<stop  offset="1" style="stop-color:#4DE4AD"/>
					</linearGradient>
					<path style="fill:url(#SVGID_00000077285985362331312330000011920769674740319635_);" d="M314.869,155.698H189.806v203.729
						h125.063c4.72,0,8.547-3.827,8.547-8.547V164.245C323.416,159.525,319.589,155.698,314.869,155.698z"/>
					
						<linearGradient id="SVGID_00000112596547311043120180000001158020230502885272_" gradientUnits="userSpaceOnUse" x1="190.4291" y1="600.2498" x2="177.0957" y2="169.5835">
						<stop  offset="0" style="stop-color:#3C0AFF"/>
						<stop  offset="1" style="stop-color:#B84FFF"/>
					</linearGradient>
					<path style="fill:url(#SVGID_00000112596547311043120180000001158020230502885272_);" d="M192.946,155.698H174.98
						c-4.72,0-8.547,3.827-8.547,8.547V350.88c0,4.72,3.827,8.547,8.547,8.547h17.966V155.698z"/>
					<path style="fill:#F2F8FD;" d="M296.554,230.527h-83.201c-4.335,0-7.849-3.514-7.849-7.849v-7.326
						c0-4.335,3.514-7.849,7.849-7.849h83.201c4.335,0,7.849,3.514,7.849,7.849v7.326
						C304.404,227.012,300.889,230.527,296.554,230.527z"/>
					<path style="fill:#F2F8FD;" d="M278.49,251.458h-49.164c-2.562,0-4.638-2.077-4.638-4.638v-4.329
						c0-2.562,2.076-4.638,4.638-4.638h49.164c2.562,0,4.638,2.076,4.638,4.638v4.329
						C283.128,249.381,281.051,251.458,278.49,251.458z"/>
				</g>
				<path style="opacity:0.44;fill:#1AB8FF;" d="M302.206,271.3l4.021,87.882c0.004,0.083,0.017,0.163,0.023,0.246h8.619
					c4.72,0,8.547-3.827,8.547-8.547V271.3H302.206z"/>
				<g>
					<g>
						
							<rect x="366.615" y="252.214" transform="matrix(0.9729 0.2311 -0.2311 0.9729 69.9942 -78.7231)" style="fill:#B0BEC5;" width="8.893" height="14.45"/>
						
							<rect x="370.343" y="252.651" transform="matrix(0.9729 0.2311 -0.2311 0.9729 70.1412 -79.1328)" style="fill:#CFD8DC;" width="5.113" height="14.45"/>
						<path style="fill:#B0BEC5;" d="M367.38,255.699c1.483,0.641,3.027,1.186,4.653,1.572c1.326,0.315,2.649,0.495,3.967,0.615
							l1.057-4.449l-8.652-2.055L367.38,255.699z"/>
						<path style="fill:#1AE5FF;" d="M406.376,233.895c-3.575,15.052-18.675,24.355-33.726,20.781
							c-15.052-3.575-24.355-18.675-20.781-33.726c3.575-15.052,18.675-24.355,33.726-20.78
							C400.647,203.744,409.95,218.844,406.376,233.895z"/>
						<path style="fill:#FFFFFF;" d="M399.454,232.251c-2.667,11.229-13.932,18.17-25.161,15.503
							c-11.229-2.667-18.17-13.932-15.503-25.16c2.667-11.229,13.932-18.17,25.161-15.503
							C395.18,209.757,402.121,221.022,399.454,232.251z"/>
						
							<linearGradient id="SVGID_00000183225989455360592050000012770885917586653831_" gradientUnits="userSpaceOnUse" x1="380.998" y1="194.149" x2="398.5012" y2="249.638" gradientTransform="matrix(0.9729 0.2311 -0.2311 0.9729 52.9277 -54.5964)">
							<stop  offset="0" style="stop-color:#FFFFFF"/>
							<stop  offset="1" style="stop-color:#A3A1A1"/>
						</linearGradient>
						<path style="fill:url(#SVGID_00000183225989455360592050000012770885917586653831_);" d="M399.83,224.757
							c-1.079-8.371-7.181-15.601-15.879-17.667c-11.229-2.667-22.494,4.274-25.161,15.503c-0.634,2.671-0.71,5.34-0.329,7.899
							c3.027,5.093,8.022,9.009,14.242,10.486C384.683,243.824,396.679,236.581,399.83,224.757z"/>
						<g>
							
								<linearGradient id="SVGID_00000061442246771083935950000006064863863279543938_" gradientUnits="userSpaceOnUse" x1="366.1898" y1="276.4496" x2="368.8565" y2="235.783">
								<stop  offset="0" style="stop-color:#FE9300"/>
								<stop  offset="1" style="stop-color:#FEC800"/>
							</linearGradient>
							<polygon style="fill:url(#SVGID_00000061442246771083935950000006064863863279543938_);" points="366.663,304.894 
								354.551,302.017 365.082,257.677 377.195,260.553 							"/>
							
								<rect x="368.53" y="259.539" transform="matrix(0.9729 0.231 -0.231 0.9729 75.2381 -77.8982)" style="fill:#FF7D21;" width="3.446" height="45.574"/>
						</g>
					</g>
					<g>
						<path style="fill:#37474F;" d="M324.188,247.188l-6.139,1.188c-0.633,0.122-1.207-0.542-1.095-1.267l1.417-9.134
							c0.064-0.41,0.338-0.723,0.697-0.792l0.001,0c0.358-0.069,0.73,0.118,0.942,0.475l4.721,7.947
							C325.106,246.235,324.821,247.065,324.188,247.188z"/>
						<path style="fill:#7986CB;" d="M345.153,344.872l-10.096,1.953c-0.364,0.07-0.602,0.422-0.531,0.786l1.398,7.226
							c0.07,0.364,0.422,0.602,0.786,0.531l10.096-1.953c0.364-0.07,0.601-0.422,0.531-0.786l-1.398-7.226
							C345.868,345.04,345.516,344.802,345.153,344.872z"/>
						<path style="fill:#3949AB;" d="M345.367,344.831l-4.308,0.833c-0.245,0.048-0.406,0.285-0.358,0.53l1.48,7.654
							c0.048,0.245,0.285,0.406,0.53,0.359l4.308-0.834c0.246-0.047,0.406-0.285,0.358-0.53l-1.481-7.654
							C345.85,344.944,345.612,344.783,345.367,344.831z"/>
						<path style="fill:#5C6BC0;" d="M342.57,345.372l-4.931,0.954c-0.261,0.05-0.432,0.303-0.381,0.564l1.47,7.598
							c0.05,0.261,0.303,0.431,0.564,0.381l4.931-0.954c0.261-0.05,0.432-0.303,0.381-0.564l-1.47-7.598
							C343.084,345.492,342.831,345.321,342.57,345.372z"/>
						
							<rect x="325.306" y="250.149" transform="matrix(0.9818 -0.1899 0.1899 0.9818 -50.8349 68.3364)" style="fill:#ECEFF1;" width="11.625" height="98.486"/>
						
							<rect x="333.328" y="249.381" transform="matrix(0.9818 -0.1899 0.1899 0.9818 -50.6147 69.0742)" style="fill:#B0BEC5;" width="3.529" height="98.486"/>
						
							<rect x="328.152" y="250.149" transform="matrix(0.9818 -0.1899 0.1899 0.9818 -50.8275 68.3243)" style="fill:#CFD8DC;" width="5.933" height="98.486"/>
						
							<linearGradient id="SVGID_00000034068189014707323250000000830580269760688520_" gradientUnits="userSpaceOnUse" x1="332.5087" y1="268.3511" x2="333.5087" y2="246.0178">
							<stop  offset="0" style="stop-color:#0067FF"/>
							<stop  offset="1" style="stop-color:#36FFFF"/>
						</linearGradient>
						<polygon style="fill:url(#SVGID_00000034068189014707323250000000830580269760688520_);" points="345.598,343.642 
							334.185,345.85 316.639,255.143 328.053,252.935 						"/>
						
							<linearGradient id="SVGID_00000084492545305835441450000012525138269276609455_" gradientUnits="userSpaceOnUse" x1="336.0372" y1="268.5091" x2="337.0372" y2="246.1758">
							<stop  offset="0" style="stop-color:#0067FF"/>
							<stop  offset="1" style="stop-color:#36FFFF"/>
						</linearGradient>
						<polygon style="fill:url(#SVGID_00000084492545305835441450000012525138269276609455_);" points="345.598,343.642 
							341.318,344.47 323.772,253.763 328.053,252.935 						"/>
						
							<linearGradient id="SVGID_00000034065028046129984660000009144687289032727986_" gradientUnits="userSpaceOnUse" x1="332.5086" y1="268.3511" x2="333.5086" y2="246.0178">
							<stop  offset="0" style="stop-color:#0067FF"/>
							<stop  offset="1" style="stop-color:#36FFFF"/>
						</linearGradient>
						<polygon style="fill:url(#SVGID_00000034065028046129984660000009144687289032727986_);" points="342.813,344.181 
							336.97,345.311 319.425,254.604 325.267,253.474 						"/>
						<g>
							<polygon style="fill:#FFCC80;" points="323.181,242.599 317.305,243.736 316.06,252.149 327.474,249.942 							"/>
							<polygon style="fill:#FFA000;" points="321.767,251.046 327.474,249.942 323.181,242.599 320.243,243.168 							"/>
							<polygon style="fill:#FFB300;" points="321.743,242.878 318.744,243.458 318.854,251.609 324.68,250.482 							"/>
						</g>
					</g>
					<g>
						<path style="fill:#37474F;" d="M324.22,344.443l6.169,1.02c0.637,0.105,0.944,0.927,0.587,1.568l-4.503,8.072
							c-0.202,0.363-0.568,0.56-0.928,0.5l-0.001,0c-0.36-0.06-0.643-0.364-0.718-0.773l-1.665-9.092
							C323.028,345.017,323.584,344.337,324.22,344.443z"/>
						
							<linearGradient id="SVGID_00000125576360643171591380000007188347626748891019_" gradientUnits="userSpaceOnUse" x1="344.8782" y1="220.9691" x2="343.5448" y2="269.3023">
							<stop  offset="0" style="stop-color:#3C0AFF"/>
							<stop  offset="1" style="stop-color:#B84FFF"/>
						</linearGradient>
						<path style="fill:url(#SVGID_00000125576360643171591380000007188347626748891019_);" d="M338.513,245.561l10.146,1.678
							c0.366,0.06,0.711-0.187,0.771-0.552l1.201-7.261c0.061-0.366-0.187-0.711-0.552-0.771l-10.146-1.678
							c-0.365-0.061-0.711,0.187-0.771,0.552l-1.201,7.261C337.9,245.155,338.147,245.5,338.513,245.561z"/>
						
							<linearGradient id="SVGID_00000084491118367594281440000013753032223372664763_" gradientUnits="userSpaceOnUse" x1="341.7431" y1="220.8826" x2="340.4098" y2="269.2159">
							<stop  offset="0" style="stop-color:#3C0AFF"/>
							<stop  offset="1" style="stop-color:#B84FFF"/>
						</linearGradient>
						<path style="fill:url(#SVGID_00000084491118367594281440000013753032223372664763_);" d="M338.297,245.525l4.329,0.716
							c0.246,0.041,0.479-0.126,0.52-0.373l1.272-7.692c0.041-0.246-0.126-0.479-0.373-0.52l-4.329-0.716
							c-0.247-0.041-0.48,0.126-0.52,0.373l-1.272,7.692C337.884,245.252,338.051,245.484,338.297,245.525z"/>
						
							<linearGradient id="SVGID_00000062192888193144611340000010534445152547939971_" gradientUnits="userSpaceOnUse" x1="344.8783" y1="220.969" x2="343.5449" y2="269.3023">
							<stop  offset="0" style="stop-color:#3C0AFF"/>
							<stop  offset="1" style="stop-color:#B84FFF"/>
						</linearGradient>
						<path style="fill:url(#SVGID_00000062192888193144611340000010534445152547939971_);" d="M341.107,245.99l4.956,0.819
							c0.262,0.044,0.51-0.134,0.553-0.396l1.263-7.635c0.043-0.262-0.134-0.51-0.396-0.553l-4.955-0.82
							c-0.262-0.043-0.51,0.134-0.553,0.396l-1.263,7.635C340.668,245.699,340.845,245.947,341.107,245.99z"/>
						
							<rect x="330.053" y="243.84" transform="matrix(-0.9866 -0.1631 0.1631 -0.9866 619.4159 637.0337)" style="fill:#ECEFF1;" width="11.625" height="98.486"/>
						
							<rect x="330.107" y="243.179" transform="matrix(-0.9866 -0.1631 0.1631 -0.9866 611.6056 635.0574)" style="fill:#B0BEC5;" width="3.529" height="98.486"/>
						
							<rect x="332.899" y="243.84" transform="matrix(-0.9866 -0.1631 0.1631 -0.9866 619.4205 637.0301)" style="fill:#CFD8DC;" width="5.933" height="98.486"/>
						
							<linearGradient id="SVGID_00000141443154039982197140000014400996580227497394_" gradientUnits="userSpaceOnUse" x1="335.9047" y1="291.2313" x2="336.9047" y2="244.5647">
							<stop  offset="0" style="stop-color:#FE3400"/>
							<stop  offset="1" style="stop-color:#FEC800"/>
						</linearGradient>
						<polygon style="fill:url(#SVGID_00000141443154039982197140000014400996580227497394_);" points="337.667,246.56 
							349.136,248.456 334.063,339.607 322.594,337.71 						"/>
						
							<linearGradient id="SVGID_00000076578871708836891490000007839414049021365121_" gradientUnits="userSpaceOnUse" x1="332.3097" y1="291.1542" x2="333.3097" y2="244.4876">
							<stop  offset="0" style="stop-color:#FE3400"/>
							<stop  offset="1" style="stop-color:#FEC800"/>
						</linearGradient>
						<polygon style="fill:url(#SVGID_00000076578871708836891490000007839414049021365121_);" points="337.667,246.56 
							341.968,247.271 326.895,338.421 322.594,337.71 						"/>
						
							<linearGradient id="SVGID_00000183245142716896140780000005085882845428030125_" gradientUnits="userSpaceOnUse" x1="335.9048" y1="291.2313" x2="336.9048" y2="244.5645">
							<stop  offset="0" style="stop-color:#FE3400"/>
							<stop  offset="1" style="stop-color:#FEC800"/>
						</linearGradient>
						<polygon style="fill:url(#SVGID_00000183245142716896140780000005085882845428030125_);" points="340.466,247.023 
							346.337,247.993 331.264,339.144 325.393,338.173 						"/>
						<g>
							<polygon style="fill:#FFCC80;" points="323.569,349.094 329.474,350.071 333.565,342.615 322.096,340.718 							"/>
							<polygon style="fill:#FFA000;" points="327.831,341.666 322.096,340.718 323.569,349.094 326.522,349.583 							"/>
							<polygon style="fill:#FFB300;" points="325.015,349.333 328.029,349.832 330.758,342.151 324.904,341.182 							"/>
						</g>
					</g>
					<g>
						
							<linearGradient id="SVGID_00000179612729640455011260000016211389737923024046_" gradientUnits="userSpaceOnUse" x1="369.1192" y1="446.8011" x2="331.786" y2="156.1346">
							<stop  offset="0" style="stop-color:#3C0AFF"/>
							<stop  offset="1" style="stop-color:#B84FFF"/>
						</linearGradient>
						<path style="fill:url(#SVGID_00000179612729640455011260000016211389737923024046_);" d="M373.179,359.53h-48.055
							c-4.885,0-8.906-3.841-9.129-8.721l-4.021-87.882h74.355l-4.021,87.882C382.085,355.689,378.063,359.53,373.179,359.53z"/>
					</g>
					
						<linearGradient id="SVGID_00000051369642942888191610000007876065778839321268_" gradientUnits="userSpaceOnUse" x1="325.272" y1="522.5841" x2="377.9387" y2="181.9177">
						<stop  offset="0" style="stop-color:#3C0AFF"/>
						<stop  offset="1" style="stop-color:#E261FF"/>
					</linearGradient>
					<path style="fill:url(#SVGID_00000051369642942888191610000007876065778839321268_);" d="M339.019,334.762
						c0.223,4.88,4.245,8.721,9.129,8.721h34.495l3.686-80.555h-50.597L339.019,334.762z"/>
				</g>
			</g>
		</g>
		<g>
			<path style="fill:#FFB300;" d="M119.515,270.232c0,0,4.625-2.5,5-1.5s-5,3.625-5.625,3.625s-0.25-1.375-0.25-1.375
				L119.515,270.232z"/>
			<path style="fill:#FFB300;" d="M105.868,280.458c0,0,4.933,1.575,4.769,2.204c-0.164,0.63-6.33-0.079-6.413-0.866
				c-0.082-0.787,0.658-1.889,1.151-1.811C105.868,280.064,105.868,280.458,105.868,280.458z"/>
			<path style="fill:#424242;" d="M94.973,251.148c0,0,4.333,11.5,6.667,14.833c2.333,3.333,2.333,14.667,2.333,14.667h2.833
				c0,0,1-12-0.333-16.5c-1.333-4.5-4.167-13-4.167-13H94.973z"/>
			<path style="fill:#424242;" d="M99.829,256.835c0,0,3.249,1.209,6.695,3.083c3.446,1.874,5.045,2.611,5.323,3.098
				c0.278,0.487,4.735,7.495,5.865,8.159c1.13,0.664,2.496-0.43,2.372-1.564c-0.124-1.134-3.843-8.808-5.283-10.046
				c-1.441-1.238-8.497-7.433-11.281-7.781C100.736,251.436,98.621,255.561,99.829,256.835z"/>
			<path style="fill:#FF5345;" d="M99.436,234.035c0,0,2.656,0.781,3.906,3.515c1.25,2.734,3.437,11.249,2.89,15.233
				c-0.547,2.422-8.749,1.797-11.093-0.469c-0.312-1.797-1.64-8.515-0.234-15.233C95.218,235.441,96.937,234.035,99.436,234.035z"/>
			<path style="fill:#FFCC80;" d="M97.718,225.911c0,0,2.383,2.422,2.148,4.921c-0.352,2.07-1.211,2.226,0.078,3.593
				c0,0-0.976,1.406-2.812,0.469c0,0,0.859-1.016-0.625-1.875c-1.119-0.648-2.89-2.812-3.125-4.687
				c-0.234-1.875,0.703-2.656,1.953-2.968C96.591,225.05,97.366,225.442,97.718,225.911z"/>
			<path style="fill:#FF5345;" d="M97.613,239.166c0,0-4.669,5.571-9.083,6.847c-2.81-0.482,5.68-9.19,7.729-9.138
				C98.309,236.927,97.613,239.166,97.613,239.166z"/>
			<g>
				<path style="fill:#FFCC80;" d="M95.671,248.502c0,0,0.487,0.453,1.003,0.282c0.517-0.171,1.605-0.041,1.982,0.251
					c0.377,0.292-0.795,0.275-0.795,0.275s2.02,0.292,2.01,0.487c-0.009,0.195-1.482,0.751-2.3,0.673
					c-0.818-0.078-1.25-0.842-2.062-1.037L95.671,248.502z"/>
				<path style="fill:#FF5345;" d="M88.814,244.695c0,0,4.693,1.631,7.32,3.946l-0.516,0.992c0,0-3.333-0.628-5.692-1.992
					C87.565,246.278,87.643,244.639,88.814,244.695z"/>
			</g>
			<g>
				<path style="fill:#FFCC80;" d="M115.645,243.533c0,0,0.694,0.122,1.128-0.15c0.434-0.273,1.682-0.855,1.825-0.618
					c0.143,0.237-0.501,0.6-0.501,0.6s1.088-0.138,1.296,0.23c0.207,0.368-0.639,1.778-1.32,1.695
					c-0.681-0.083-1.489-0.821-1.907-0.902c-0.419-0.081-0.628-0.122-0.628-0.122L115.645,243.533z"/>
				<path style="fill:#FF5345;" d="M99.864,237.641c0,0,4.571,5.651,8.963,7.003c2.818-0.433-5.52-9.286-7.57-9.27
					C99.207,235.39,99.864,237.641,99.864,237.641z"/>
				<path style="fill:#FF5345;" d="M107.977,242.684c0,0,4.957-0.335,8.28,0.767l-0.087,1.115c0,0-3.313,0.726-6.018,0.394
					C107.448,244.629,106.878,243.09,107.977,242.684z"/>
			</g>
			<path style="fill:#FF8A65;" d="M98.03,227.922c0,0,0.996,1.582,0.762,1.875c-0.234,0.293-1.348,0.469-1.406,0.234
				c-0.059-0.234,0.879-0.645,0.879-0.645S97.386,227.571,98.03,227.922z"/>
			<path style="fill:#424242;" d="M93.661,225.777c0,0,2.709-3.766,4.229-2.511c1.52,1.255,2.048,2.247-0.925,3.37
				c-2.973,1.123-2.709,1.85-2.048,3.106c0.661,1.256,1.189,1.586,0.661,1.718c-0.529,0.132-0.777-1.916-1.437-1.784
				c-0.661,0.132,0.975,1.867,1.107,1.867c0.132,0-2.181-0.149-2.709-2.131c-0.529-1.982,0.198-1.85,0.198-1.85
				S92.009,226.504,93.661,225.777z"/>
		</g>
		<g>
			<path style="fill:#F76A1E;" d="M218.342,304.981c0,0,2.01-1.809,3.818,0.1c1.809,1.909-0.904,4.12,1.206,4.923
				c2.11,0.804,3.617,0.904,3.014,3.416c-0.603,2.512-1.809,3.617-1.206,5.526c0.603,1.909-1.909,3.919-4.321,3.014
				c-2.411-0.904-4.12,0.1-6.431,1.909c-2.311,1.809-6.23-0.703-5.024-3.818c1.206-3.115,3.718-2.713,3.014-5.828
				c-0.703-3.115-2.713-5.828-0.402-8.139C214.323,303.775,218.342,304.981,218.342,304.981z"/>
			<path style="fill:#FFA812;" d="M228.197,336.138c0,0,0.51,6.118-1.02,8.413c-1.53,2.295-14.277,4.207-15.042,3.059
				c-0.765-1.147,3.059-2.167,5.864-3.187c2.804-1.02,5.481-3.314,4.844-7.648C222.206,332.441,228.197,336.138,228.197,336.138z"/>
			<path style="fill:#FFCC80;" d="M217.317,331.986c0,0,2.61,4.533,2.747,10.027c0.412,4.945-6.181,15.109-5.632,17.307
				c0.549,2.06,8.104-7.28,9.752-12.637c1.648-5.357,0.549-12.499-0.549-14.56C222.536,330.063,217.317,331.986,217.317,331.986z"/>
			<g>
				<path style="fill:#F5F5F5;" d="M213.028,359.21c0,0-0.595,0.552-0.595,0.892c0,0.34,0.68,0.85,1.02,1.657
					c0.34,0.807,1.572,2.804,2.804,3.739c1.02,0.765,1.168,0.722,1.168,0.722l0.446-0.467c0,0-3.187-4.037-3.314-4.164
					C214.43,361.462,213.028,359.21,213.028,359.21z"/>
				<path style="fill:#FFCC80;" d="M214.132,359.55c0.297,0.892,1.513,2.082,2.286,1.508c-0.382-0.829-0.14-2.358-0.14-2.358
					s-0.878-1.217-1.593-1.052C214.685,357.649,213.835,358.658,214.132,359.55z"/>
				<path style="fill:#F76A1E;" d="M216.419,361.059c-0.773,0.574-1.989-0.616-2.286-1.508c-0.214-0.643,0.165-1.341,0.395-1.684
					c-0.713,0.272-1.697,1.284-1.758,1.755c-0.066,0.506,0.55,0.95,1.268,2.319c0.597,1.24,3.196,4.135,3.663,3.96
					c0.411-0.215,0.55-0.881,0.55-0.881C218.264,363.581,216.801,361.888,216.419,361.059z"/>
			</g>
			<g>
				<path style="fill:#F5F5F5;" d="M211.329,346.761c0,0-0.772,0.25-0.916,0.559c-0.143,0.308,0.258,1.057,0.227,1.932
					c-0.032,0.875,0.244,3.206,0.968,4.573c0.603,1.123,0.755,1.147,0.755,1.147l0.602-0.236c0,0-1.189-5.004-1.251-5.173
					C211.651,349.394,211.329,346.761,211.329,346.761z"/>
				<path style="fill:#FFA812;" d="M212.187,347.535c-0.106,0.935,0.495,2.526,1.438,2.331c0.003-0.913,0.866-2.198,0.866-2.198
					s-0.283-1.474-1.002-1.625C213.489,346.043,212.293,346.6,212.187,347.535z"/>
				<path style="fill:#F76A1E;" d="M213.625,349.866c-0.943,0.195-1.544-1.397-1.438-2.331c0.077-0.674,0.715-1.147,1.068-1.361
					c-0.762-0.053-2.08,0.45-2.334,0.851c-0.273,0.431,0.099,1.094,0.172,2.637c0.02,1.376,1.157,5.097,1.654,5.135
					c0.463-0.022,0.87-0.568,0.87-0.568C214.236,352.931,213.622,350.779,213.625,349.866z"/>
			</g>
			<path style="fill:#F76A1E;" d="M216.366,327.555c0,0-1.34,1.072-1.206,4.019c0.134,2.947-2.813,6.966-5.091,8.172
				c-2.277,1.206,0.938,3.081,2.947,2.813c2.009-0.268,2.813,0.134,5.091,2.679c2.278,2.545,4.421-1.474,7.234,0
				c2.813,1.474,5.761,0.67,7.368-1.34c1.608-2.01,4.019-1.742,4.287-3.483c0.268-1.742-4.555-4.019-6.564-7.368
				c-2.01-3.349-2.01-5.359-3.215-6.029C226.012,326.349,216.366,327.555,216.366,327.555z"/>
			<path style="fill:#1E60CF;" d="M221.458,315.358c0,0,4.258-2.79,7.886-3.261c2.745,0.074,1.244,2.648-0.758,4.116
				C224.93,318.893,219.777,317.965,221.458,315.358z"/>
			<path style="fill:#1E60CF;" d="M220.846,313.533c0,0,2.465,0.255,3.229,1.275c0.765,1.02,0.765,2.04,1.615,3.314
				c0.85,1.275-0.425,2.379,0.17,4.249c0.595,1.87,0.34,1.955,1.445,3.654c1.105,1.7,0,2.464-1.36,3.314
				c-1.36,0.85-7.818,1.105-9.348-0.765c-1.53-1.87-0.255-2.294,0.17-3.739c0.425-1.445,0.255-4.164,0-6.629
				c-0.255-2.464,0.51-3.654,2.295-4.334C220.846,313.193,220.846,313.533,220.846,313.533z"/>
			<path style="fill:#FFCC80;" d="M205.255,321.418c0,0-0.718,0.145-1.104-0.313c-0.386-0.458-1.483-0.963-2.005-0.906
				c-0.522,0.057,0.588,0.716,0.588,0.716s-2.063-0.889-2.167-0.701c-0.104,0.188,0.959,1.558,1.771,1.956
				c0.812,0.398,1.658-0.07,2.533,0.215L205.255,321.418z"/>
			<path style="fill:#FFCC80;" d="M237.174,308.992c0,0,0.702-0.208,0.83-0.793c0.127-0.586,0.86-1.545,1.348-1.739
				c0.488-0.194-0.184,0.908-0.184,0.908s1.407-1.751,1.587-1.633c0.18,0.118-0.118,1.826-0.65,2.557
				c-0.532,0.731-1.498,0.714-2.138,1.375L237.174,308.992z"/>
			<path style="fill:#FFCC80;" d="M219.681,304.802c0,0,2.624,2.667,2.365,5.419c-0.387,2.28-1.333,2.452,0.086,3.957
				c0,0-1.075,1.548-3.097,0.516c0,0,0.946-1.118-0.688-2.064c-1.233-0.714-3.183-3.097-3.441-5.161
				c-0.258-2.064,0.774-2.925,2.15-3.269C218.44,303.854,219.294,304.286,219.681,304.802z"/>
			<path style="fill:#FF8A65;" d="M220.025,307.017c0,0,1.097,1.742,0.839,2.064c-0.258,0.323-1.484,0.516-1.548,0.258
				c-0.064-0.258,0.968-0.71,0.968-0.71S219.316,306.63,220.025,307.017z"/>
			<path style="fill:#1E60CF;" d="M217.362,315.063c0,0-4.249,2.804-6.119,5.949c-1.02,2.549,1.939,2.191,4.079,0.935
				C219.231,319.652,220.421,314.553,217.362,315.063z"/>
			<path style="fill:#1E60CF;" d="M212.095,321.317c-0.289,0-6.268-0.386-7.618,0.193c-1.061,0.579,1.157,1.929,3.278,2.218
				c2.121,0.289,6.557-0.386,7.714-2.025C216.627,320.063,212.095,321.317,212.095,321.317z"/>
			<path style="fill:#1E60CF;" d="M229.796,311.914c0.26-0.127,6.259-3.058,7.726-3.132c1.207,0.053-0.158,2.29-1.968,3.435
				c-5.558,3.516-6.008,3.273-7.768,2.31C226.026,313.564,229.796,311.914,229.796,311.914z"/>
			<path style="fill:#F76A1E;" d="M215.328,303.574c0,0,3.617-1.206,4.522,0.804c0.904,2.009-3.316,1.809-3.316,3.316
				c0,1.507,2.01,1.206,1.005,2.612c-1.005,1.407,1.62,1.232,0.609,2.525c-1.011,1.293-4.829-1.922-4.628-4.434
				C213.72,305.885,213.419,304.478,215.328,303.574z"/>
		</g>
		<path style="fill:#1AB8FF;" d="M276.898,275.651c-0.224-2.716-1.608-5.813-1.608-5.813l-0.156,0.02
			c-0.189-0.719,0.1-1.442-0.271-2.102c-0.402-0.716-1.698-1.61-1.863-1.507c-0.166,0.103,0.746,1.929,0.746,1.929
			s-0.654-0.973-0.679-0.497c-0.025,0.476,0.489,1.445,0.924,1.772c0.182,0.137,0.268,0.33,0.31,0.511l-0.12,0.015
			c-0.26,2.232,0.196,4.996,0.556,6.695c-2.638-1.408-6.076-2.075-7.907-2.347c-0.641-0.473-1.231-0.742-1.554-0.868
			c-0.881-1.095-0.15-1.392,0.173-3.294c0.234-2.5-2.148-4.921-2.148-4.921c-0.027-0.035-0.06-0.069-0.091-0.103
			c0.251-0.306,0.333-0.639,0.097-0.993c-1.75-1.167-5,1.083-5,1.083c-2.333,1.917,1.167,6.417,2.417,6.333
			c0.119-0.008,0.197-0.068,0.258-0.151c0.389,0.411,0.778,0.746,1.109,0.938c0.852,0.493,0.926,1.032,0.839,1.406
			c-0.468,0.184-0.878,0.424-1.224,0.712c-2.155-1.244-5.798-2.579-7.99-2.801c-0.591-1.489-1.914-4.505-3.605-6.425l-0.077,0.04
			c-0.052-0.173-0.09-0.358-0.061-0.541c0.081-0.506,0.129-1.882-0.145-1.921c-0.274-0.039-0.356,0.696-0.356,0.696
			s-0.299-1.055-0.719-1.102c-0.42-0.047-1.386,1.284-1.044,1.878c0.337,0.586,1.306,1.035,1.562,1.387l-0.153,0.08
			c0,0,0.627,3.333,1.991,5.693c0.298,0.516,0.609,0.909,0.912,1.206c2.104,2.403,6.057,4.08,8.262,4.874
			c-1.052,6.331,0.146,12.417,0.441,14.114c0,0-3.593,14.563-4.518,19.321c-0.925,4.758-2.511,14.405-2.247,15.198
			c0.022,0.065,0.065,0.113,0.103,0.164c-0.9,0.393-4.545,2.039-4.481,2.914c0.074,0.999,2.41,0.888,3.978,0.229
			c1.571-0.79,2.033-1.326,2.033-1.326s0.458,0.434,0.814-0.053s0.806-1.469,0.29-1.747c-0.053-0.029-0.128-0.049-0.207-0.069
			c0.697-0.62,3.689-13.611,4.606-15.837c0.162-0.395,0.453-1.161,0.819-2.155c0.447,3.089,3.598,11.164,4.415,12.114
			c0.285,0.331,0.693,0.51,1.124,0.572c-0.244,0.678-1.684,4.787-0.969,5.363c0.78,0.628,2.295-1.154,2.884-2.748
			c0.497-1.687,0.421-2.391,0.421-2.391s0.63-0.039,0.517-0.631c-0.08-0.422-0.313-1.044-0.64-1.303
			c0.037-2.257-2.189-10.856-2.377-11.462c-0.199-0.642,0.464-2.644,1.639-7.192c0.953-3.686,2.182-6.9,2.614-7.987
			c0.128-0.152,0.23-0.315,0.272-0.502c0.465-3.386-1.044-10.032-2.275-13.633c3.154,0.61,6.62,0.751,6.878-0.292
			C276.761,277.722,277,276.888,276.898,275.651z"/>
		<g>
			<g>
				<g>
					<path style="fill:#FFFFFF;" d="M252.262,322.995c0,0-4.755,2.002-4.681,3c0.074,0.998,2.41,0.887,3.978,0.228
						c1.571-0.79,2.033-1.326,2.033-1.326s0.458,0.434,0.814-0.053c0.356-0.487,0.806-1.469,0.29-1.747
						C254.181,322.819,252.262,322.995,252.262,322.995z"/>
					<path style="fill:#424242;" d="M258.723,288.398c0,0-3.593,14.563-4.518,19.321c-0.925,4.758-2.511,14.405-2.247,15.198
						c0.264,0.793,1.85,0.529,2.511,0.132c0.661-0.397,3.7-13.612,4.626-15.859c0.925-2.247,5.947-16.387,5.947-17.577
						C265.042,288.424,260.466,287.182,258.723,288.398z"/>
					<path style="fill:#FFFFFF;" d="M265.491,317.615c0,0-1.787,4.84-1.007,5.468c0.78,0.628,2.295-1.154,2.884-2.748
						c0.497-1.687,0.421-2.391,0.421-2.391s0.63-0.038,0.517-0.631c-0.112-0.593-0.522-1.592-1.078-1.406
						C266.674,316.094,265.491,317.615,265.491,317.615z"/>
					<path style="fill:#616161;" d="M269.703,288.975c0,0-1.597,3.832-2.773,8.38c-1.176,4.548-1.839,6.55-1.639,7.192
						c0.199,0.642,2.69,10.271,2.348,11.803c-0.342,1.532-2.417,1.833-3.308,0.798c-0.892-1.036-4.568-10.563-4.474-12.836
						c0.094-2.273,0.44-13.514,2.41-16.235C264.236,285.356,269.575,286.876,269.703,288.975z"/>
					<path style="fill:#DB4FFF;" d="M263.02,270.118c0,0,2.656,0.781,3.906,3.515c1.25,2.734,3.437,11.249,2.89,15.233
						c-0.547,2.422-8.749,1.797-11.093-0.469c-0.313-1.797-1.641-8.515-0.234-15.233C258.801,271.524,260.52,270.118,263.02,270.118
						z"/>
					<path style="fill:#FFCC80;" d="M261.301,261.994c0,0,2.383,2.422,2.148,4.921c-0.352,2.07-1.211,2.226,0.078,3.593
						c0,0-0.977,1.406-2.812,0.469c0,0,0.859-1.016-0.625-1.875c-1.12-0.648-2.89-2.812-3.125-4.687
						c-0.234-1.875,0.703-2.656,1.953-2.969C260.174,261.133,260.95,261.525,261.301,261.994z"/>
					<path style="fill:#DB4FFF;" d="M263.552,270.915c0,0,7.239,0.661,10.803,3.561c1.206,2.583-10.788,0.571-11.914-1.143
						C261.315,271.619,263.552,270.915,263.552,270.915z"/>
					<g>
						<path style="fill:#FFCC80;" d="M272.33,267.19c0,0,0.095-0.658-0.34-0.985c-0.435-0.327-0.949-1.296-0.924-1.772
							c0.025-0.476,0.679,0.497,0.679,0.497S270.834,263.103,271,263c0.166-0.104,1.462,0.79,1.863,1.507
							c0.402,0.716,0.021,1.507,0.323,2.285L272.33,267.19z"/>
						<path style="fill:#DB4FFF;" d="M273.11,274.994c0,0-1.334-4.786-0.93-8.264l1.11-0.141c0,0,1.384,3.097,1.608,5.813
							C275.122,275.117,273.731,275.987,273.11,274.994z"/>
					</g>
					<g>
						<path style="fill:#FFCC80;" d="M248.274,262.591c0,0-0.384-0.591-0.302-1.096c0.081-0.506,0.129-1.882-0.145-1.921
							c-0.274-0.039-0.356,0.696-0.356,0.696s-0.299-1.055-0.719-1.102c-0.42-0.047-1.386,1.284-1.044,1.878
							c0.342,0.594,1.338,1.049,1.576,1.403c0.238,0.354,0.357,0.531,0.357,0.531L248.274,262.591z"/>
						<path style="fill:#DB4FFF;" d="M259.869,274.81c0,0-6.989-1.997-9.951-5.51c-0.704-2.763,10.706,1.448,11.493,3.341
							C262.198,274.535,259.869,274.81,259.869,274.81z"/>
						<path style="fill:#DB4FFF;" d="M252.055,269.315c0,0-1.63-4.693-3.945-7.32l-0.992,0.516c0,0,0.627,3.333,1.991,5.693
							C250.472,270.564,252.11,270.486,252.055,269.315z"/>
					</g>
					<path style="fill:#FF8A65;" d="M261.614,264.005c0,0,0.996,1.582,0.762,1.875c-0.234,0.293-1.348,0.469-1.406,0.234
						c-0.059-0.234,0.879-0.644,0.879-0.644S260.969,263.654,261.614,264.005z"/>
				</g>
			</g>
			<path style="fill:#424242;" d="M256.307,261.982c0,0,3.25-2.25,5-1.083c1,1.5-3.583,2.667-3.583,2.667s2.25,4.667,1,4.75
				C257.473,268.398,253.973,263.898,256.307,261.982z"/>
		</g>
		<g>
			<rect x="238.807" y="174.565" style="fill:#FFB300;" width="3" height="191"/>
			<rect x="256.807" y="174.565" style="fill:#FFB300;" width="3" height="191"/>
			<rect x="240.473" y="182.898" style="fill:#FFB300;" width="17" height="2.667"/>
			<rect x="240.473" y="193.898" style="fill:#FFB300;" width="17" height="2.667"/>
			<rect x="240.473" y="204.898" style="fill:#FFB300;" width="17" height="2.667"/>
			<rect x="240.473" y="215.898" style="fill:#FFB300;" width="17" height="2.667"/>
			<rect x="240.473" y="226.898" style="fill:#FFB300;" width="17" height="2.667"/>
			<rect x="240.473" y="237.898" style="fill:#FFB300;" width="17" height="2.667"/>
			<rect x="240.473" y="248.898" style="fill:#FFB300;" width="17" height="2.667"/>
			<rect x="240.473" y="259.898" style="fill:#FFB300;" width="17" height="2.667"/>
			<rect x="240.473" y="270.898" style="fill:#FFB300;" width="17" height="2.667"/>
			<rect x="240.473" y="281.898" style="fill:#FFB300;" width="17" height="2.667"/>
			<rect x="240.473" y="292.898" style="fill:#FFB300;" width="17" height="2.667"/>
			<rect x="240.473" y="303.898" style="fill:#FFB300;" width="17" height="2.667"/>
			<rect x="240.473" y="314.898" style="fill:#FFB300;" width="17" height="2.667"/>
			<rect x="240.473" y="325.898" style="fill:#FFB300;" width="17" height="2.667"/>
			<rect x="240.473" y="336.898" style="fill:#FFB300;" width="17" height="2.667"/>
			<rect x="240.473" y="347.898" style="fill:#FFB300;" width="17" height="2.667"/>
		</g>
		<path style="fill:#FEC800;" d="M301.792,106.615l0.642-2.385c0.184-0.686,1.157-0.686,1.341,0l0.642,2.385
			c0.064,0.239,0.251,0.426,0.49,0.49l2.385,0.642c0.685,0.185,0.685,1.157,0,1.342l-2.385,0.642
			c-0.239,0.064-0.426,0.251-0.49,0.49l-0.642,2.385c-0.185,0.686-1.157,0.686-1.341,0l-0.642-2.385
			c-0.064-0.239-0.251-0.426-0.49-0.49l-2.385-0.642c-0.685-0.185-0.685-1.157,0-1.342l2.385-0.642
			C301.541,107.04,301.727,106.854,301.792,106.615z"/>
		<path style="fill:#FEC800;" d="M216.562,135.838l0.436-1.617c0.125-0.465,0.784-0.465,0.91,0l0.436,1.617
			c0.044,0.162,0.17,0.289,0.332,0.332l1.617,0.435c0.465,0.125,0.465,0.785,0,0.91l-1.617,0.436
			c-0.162,0.044-0.289,0.17-0.332,0.332l-0.436,1.617c-0.125,0.465-0.784,0.465-0.91,0l-0.436-1.617
			c-0.044-0.162-0.17-0.289-0.332-0.332l-1.617-0.436c-0.465-0.125-0.465-0.784,0-0.91l1.617-0.435
			C216.391,136.127,216.518,136,216.562,135.838z"/>
		<path style="fill:#FEC800;" d="M191.86,78.732l0.435-1.617c0.125-0.465,0.785-0.465,0.91,0l0.435,1.617
			c0.044,0.162,0.17,0.289,0.332,0.332l1.617,0.435c0.465,0.125,0.465,0.785,0,0.91l-1.617,0.435
			c-0.162,0.044-0.289,0.17-0.332,0.332l-0.435,1.617c-0.125,0.465-0.785,0.465-0.91,0l-0.435-1.617
			c-0.044-0.162-0.17-0.289-0.332-0.332l-1.617-0.435c-0.465-0.125-0.465-0.785,0-0.91l1.617-0.435
			C191.689,79.02,191.816,78.894,191.86,78.732z"/>
		<g>
			<path style="fill:#FEC800;" d="M247.912,52.271l2.492,5.057c0.346,0.701,1.014,1.188,1.788,1.301l5.579,0.814
				c1.948,0.284,2.725,2.679,1.315,4.053l-4.039,3.933c-0.56,0.545-0.816,1.332-0.684,2.102l0.95,5.557
				c0.332,1.941-1.706,3.42-3.448,2.503l-4.989-2.626c-0.692-0.364-1.519-0.365-2.211-0.001l-4.991,2.621
				c-1.743,0.915-3.78-0.566-3.446-2.506l0.956-5.556c0.133-0.771-0.122-1.557-0.682-2.103l-4.035-3.937
				c-1.409-1.375-0.63-3.77,1.319-4.052l5.579-0.808c0.774-0.112,1.443-0.598,1.789-1.299l2.498-5.054
				C244.524,50.504,247.042,50.505,247.912,52.271z"/>
			<path style="fill:#FE9300;" d="M257.771,59.442l-5.579-0.814c-0.774-0.113-1.442-0.599-1.788-1.301l-2.492-5.057
				c-0.44-0.893-1.3-1.333-2.157-1.324v23.744c0.385-0.002,0.77,0.088,1.12,0.272l4.989,2.626c1.742,0.917,3.78-0.562,3.448-2.503
				l-0.95-5.557c-0.132-0.771,0.124-1.557,0.684-2.102l4.039-3.933C260.497,62.121,259.72,59.726,257.771,59.442z"/>
		</g>
	</g>
	<g>
		<text transform="matrix(1 0 0 1 147.5518 395.0151)" style="fill:#7986FF; font-family:'Montserrat-Bold'; font-size:20.384px;">Education Concept</text>
		<g>
			<rect x="50" y="408.647" style="fill:none;" width="400" height="30.194"/>
			<text transform="matrix(0.9 0 0 1 155.541 416.2764)"><tspan x="0" y="0" style="fill:#A8A8A8; font-family:'Montserrat-Regular'; font-size:10.2828px;">Lorem ipsum dolor sit amet, consectetur </tspan><tspan x="-111.51" y="15.63" style="fill:#A8A8A8; font-family:'Montserrat-Regular'; font-size:10.2828px;">adipisicing elit, sed do eiusmod tempor incididunt ut labore et dolore magna aliqua. </tspan></text>
		</g>
	</g>
</g>
<g id="DESIGNED_BY_FREEPIK">
	<g>
		<g id="XMLID_319_">
			<g id="XMLID_338_">
				<path id="XMLID_346_" style="fill:#424242;" d="M261.442,464.892c-0.49,0.502-0.91,1.054-1.255,1.646l-0.527-0.273
					c-0.076-0.337-0.396-0.569-0.746-0.528c-0.375,0.044-0.643,0.384-0.599,0.759c0.044,0.375,0.384,0.643,0.758,0.599
					c0.074-0.009,0.144-0.029,0.208-0.059l0.511,0.265c-0.284,0.627-0.49,1.289-0.611,1.975l0.845,0.149
					c0.26-1.479,0.962-2.839,2.029-3.932L261.442,464.892z"/>
				<path id="XMLID_345_" style="fill:#424242;" d="M267.656,462.285c-0.194,0-0.386,0.007-0.577,0.019l-0.083-0.709
					c0.212-0.169,0.335-0.44,0.301-0.73c-0.052-0.445-0.456-0.763-0.901-0.711c-0.445,0.052-0.763,0.455-0.711,0.901
					c0.034,0.288,0.214,0.522,0.458,0.638l0.083,0.707c-0.808,0.132-1.589,0.376-2.332,0.732l0.37,0.774
					c1.058-0.506,2.199-0.762,3.392-0.762c0.562,0,1.124,0.06,1.67,0.178l0.182-0.839
					C268.903,462.352,268.279,462.285,267.656,462.285z"/>
				<path id="XMLID_344_" style="fill:#424242;" d="M275.133,465.17c0.375-0.046,0.641-0.387,0.595-0.761
					c-0.046-0.375-0.387-0.641-0.761-0.595c-0.35,0.043-0.606,0.344-0.6,0.689l-0.471,0.411c-0.473-0.487-1.007-0.92-1.594-1.29
					l-0.458,0.726c1.284,0.809,2.288,1.955,2.903,3.313l0.782-0.354c-0.284-0.627-0.643-1.214-1.067-1.75l0.455-0.397
					C274.986,465.175,275.059,465.179,275.133,465.17z"/>
				<path id="XMLID_343_" style="fill:#424242;" d="M267.036,473.845c-0.437,0.026-0.878,0.039-1.31,0.039
					c-0.997,0-1.962-0.069-2.807-0.203c-0.442-0.07-0.958-0.176-1.438-0.331c1.185,2.107,3.476,3.539,6.102,3.539
					c3.233,0,5.959-2.17,6.737-5.1c-0.772,0.509-1.705,0.935-2.784,1.271C270.201,473.478,268.643,473.749,267.036,473.845z"/>
				<path id="XMLID_339_" style="fill:#424242;" d="M267.656,464.002c-3.796,0-6.884,3.019-6.884,6.73
					c0,0.482,0.052,0.962,0.155,1.428c0.763,0.547,3.064,1.008,6.055,0.828c3.261-0.196,5.998-1.084,7.556-2.444
					c-0.006-0.221-0.023-0.442-0.051-0.659C274.056,466.531,271.12,464.002,267.656,464.002z M265.211,471.38
					c-1.155,0-2.095-0.94-2.095-2.095c0-1.155,0.94-2.095,2.095-2.095c1.155,0,2.095,0.94,2.095,2.095
					C267.306,470.44,266.366,471.38,265.211,471.38z M270.576,470.351c-0.849,0-1.54-0.691-1.54-1.54
					c0-0.849,0.691-1.541,1.54-1.541c0.849,0,1.541,0.691,1.541,1.541C272.116,469.66,271.425,470.351,270.576,470.351z"/>
			</g>
			<path id="XMLID_336_" style="fill:#424242;" d="M285.779,466.116c-0.334-0.131-0.912-0.35-1.565-0.269
				c-0.624,0.078-0.956,0.386-0.956,1.14v0.981h2.523v1.945h-2.523v6.177h-2.188v-6.177h-1.517v-1.945h1.517v-1.006
				c0-1.902,1.014-3.151,2.908-3.151c0.728,0,1.31,0.138,1.8,0.349L285.779,466.116z"/>
			<path id="XMLID_334_" style="fill:#424242;" d="M291.104,469.89c-0.2-0.034-0.405-0.052-0.596-0.052
				c-1.014,0-1.71,0.62-1.71,1.827v4.425h-2.188v-8.122h2.12v0.888c0.511-0.763,1.291-1.106,2.288-1.106
				c0.469,0,0.96,0.144,1.239,0.381L291.104,469.89z"/>
			<path id="XMLID_331_" style="fill:#424242;" d="M299.786,472.017c0,0.251-0.017,0.553-0.042,0.738h-5.758
				c0.235,1.173,1.056,1.685,2.087,1.685c0.704,0,1.467-0.285,2.053-0.779l1.282,1.408c-0.922,0.846-2.095,1.232-3.461,1.232
				c-2.489,0-4.216-1.693-4.216-4.249c0-2.556,1.676-4.3,4.107-4.3C298.177,467.75,299.778,469.485,299.786,472.017z
				 M293.995,471.262h3.595c-0.201-1.039-0.83-1.626-1.768-1.626C294.791,469.636,294.187,470.257,293.995,471.262z"/>
			<path id="XMLID_328_" style="fill:#424242;" d="M308.453,472.017c0,0.251-0.017,0.553-0.042,0.738h-5.758
				c0.235,1.173,1.056,1.685,2.087,1.685c0.704,0,1.467-0.285,2.053-0.779l1.282,1.408c-0.922,0.846-2.095,1.232-3.461,1.232
				c-2.489,0-4.216-1.693-4.216-4.249c0-2.556,1.676-4.3,4.107-4.3C306.843,467.75,308.444,469.485,308.453,472.017z
				 M302.661,471.262h3.596c-0.201-1.039-0.83-1.626-1.768-1.626C303.457,469.636,302.854,470.257,302.661,471.262z"/>
			<path id="XMLID_325_" style="fill:#424242;" d="M317.903,472.025c0,2.439-1.693,4.275-3.931,4.275
				c-1.09,0-1.861-0.428-2.389-1.056v4.199h-2.179v-11.474h2.137v0.897c0.528-0.662,1.307-1.115,2.422-1.115
				C316.21,467.75,317.903,469.586,317.903,472.025z M311.475,472.025c0,1.282,0.846,2.238,2.087,2.238
				c1.291,0,2.095-0.997,2.095-2.238c0-1.24-0.805-2.238-2.095-2.238C312.321,469.787,311.475,470.742,311.475,472.025z"/>
			<path id="XMLID_322_" style="fill:#424242;" d="M321.418,465.311c0,0.788-0.612,1.391-1.4,1.391
				c-0.788,0-1.391-0.603-1.391-1.391c0-0.788,0.604-1.408,1.391-1.408C320.806,463.903,321.418,464.524,321.418,465.311z
				 M321.124,476.09h-2.188v-8.122h2.188V476.09z"/>
			<path id="XMLID_320_" style="fill:#424242;" d="M324.775,470.86l3.059-2.892h2.682l-3.939,3.822l3.964,4.3h-2.69l-3.076-3.285
				v3.285h-2.188v-12.069h2.188V470.86z"/>
		</g>
		<g>
			<path style="fill:#424242;" d="M175.729,476.016v-1.194c-0.597,0.813-1.576,1.393-2.704,1.393c-2.09,0-3.566-1.592-3.566-4.196
				c0-2.555,1.46-4.213,3.566-4.213c1.078,0,2.057,0.531,2.704,1.41v-4.263h1.244v11.064H175.729z M175.729,473.843v-3.633
				c-0.448-0.697-1.41-1.294-2.405-1.294c-1.609,0-2.571,1.327-2.571,3.102c0,1.775,0.962,3.085,2.571,3.085
				C174.319,475.104,175.281,474.54,175.729,473.843z"/>
			<path style="fill:#424242;" d="M178.582,472.002c0-2.322,1.659-4.197,3.948-4.197c2.422,0,3.848,1.891,3.848,4.296v0.316h-6.486
				c0.1,1.509,1.161,2.77,2.886,2.77c0.912,0,1.841-0.365,2.471-1.012l0.597,0.813c-0.796,0.796-1.874,1.227-3.185,1.227
				C180.29,476.215,178.582,474.507,178.582,472.002z M182.513,468.834c-1.709,0-2.555,1.443-2.621,2.67h5.258
				C185.134,470.31,184.337,468.834,182.513,468.834z"/>
			<path style="fill:#424242;" d="M187.273,474.955l0.647-0.895c0.531,0.614,1.543,1.145,2.637,1.145
				c1.228,0,1.891-0.581,1.891-1.377c0-1.94-4.96-0.746-4.96-3.716c0-1.244,1.078-2.306,2.985-2.306c1.36,0,2.323,0.514,2.969,1.161
				l-0.581,0.863c-0.481-0.581-1.36-1.012-2.389-1.012c-1.095,0-1.775,0.547-1.775,1.261c0,1.758,4.96,0.597,4.96,3.716
				c0,1.344-1.078,2.422-3.151,2.422C189.197,476.215,188.086,475.817,187.273,474.955z"/>
			<path style="fill:#424242;" d="M195.053,466.031c0-0.464,0.382-0.846,0.829-0.846c0.465,0,0.846,0.381,0.846,0.846
				c0,0.465-0.381,0.829-0.846,0.829C195.434,466.86,195.053,466.495,195.053,466.031z M195.268,476.016v-8.012h1.244v8.012H195.268
				z"/>
			<path style="fill:#424242;" d="M198.569,478.073l0.63-0.929c0.663,0.796,1.46,1.095,2.604,1.095c1.327,0,2.571-0.647,2.571-2.405
				v-1.145c-0.581,0.813-1.559,1.427-2.687,1.427c-2.09,0-3.566-1.559-3.566-4.147c0-2.571,1.46-4.163,3.566-4.163
				c1.078,0,2.04,0.531,2.687,1.41v-1.211h1.244v7.78c0,2.654-1.858,3.483-3.815,3.483
				C200.443,479.267,199.514,479.002,198.569,478.073z M204.374,473.711v-3.5c-0.432-0.697-1.393-1.294-2.389-1.294
				c-1.609,0-2.571,1.277-2.571,3.052c0,1.758,0.962,3.052,2.571,3.052C202.981,475.021,203.943,474.408,204.374,473.711z"/>
			<path style="fill:#424242;" d="M213.099,476.016v-5.242c0-1.41-0.713-1.858-1.791-1.858c-0.979,0-1.908,0.597-2.372,1.244v5.855
				h-1.244v-8.012h1.244v1.161c0.564-0.663,1.658-1.36,2.853-1.36c1.675,0,2.555,0.846,2.555,2.588v5.623H213.099z"/>
			<path style="fill:#424242;" d="M215.952,472.002c0-2.322,1.659-4.197,3.948-4.197c2.422,0,3.848,1.891,3.848,4.296v0.316h-6.486
				c0.099,1.509,1.161,2.77,2.886,2.77c0.912,0,1.841-0.365,2.472-1.012l0.597,0.813c-0.796,0.796-1.874,1.227-3.185,1.227
				C217.66,476.215,215.952,474.507,215.952,472.002z M219.883,468.834c-1.708,0-2.555,1.443-2.621,2.67h5.258
				C222.503,470.31,221.707,468.834,219.883,468.834z"/>
			<path style="fill:#424242;" d="M231.146,476.016v-1.194c-0.597,0.813-1.576,1.393-2.704,1.393c-2.09,0-3.566-1.592-3.566-4.196
				c0-2.555,1.46-4.213,3.566-4.213c1.078,0,2.057,0.531,2.704,1.41v-4.263h1.244v11.064H231.146z M231.146,473.843v-3.633
				c-0.448-0.697-1.41-1.294-2.405-1.294c-1.609,0-2.571,1.327-2.571,3.102c0,1.775,0.962,3.085,2.571,3.085
				C229.736,475.104,230.697,474.54,231.146,473.843z"/>
			<path style="fill:#424242;" d="M238.327,476.016v-11.064h1.244v4.263c0.647-0.879,1.609-1.41,2.704-1.41
				c2.09,0,3.566,1.659,3.566,4.213c0,2.604-1.476,4.196-3.566,4.196c-1.128,0-2.107-0.581-2.704-1.393v1.194H238.327z
				 M241.96,475.104c1.626,0,2.588-1.31,2.588-3.085c0-1.775-0.962-3.102-2.588-3.102c-0.979,0-1.957,0.597-2.388,1.294v3.633
				C240.003,474.54,240.981,475.104,241.96,475.104z"/>
			<path style="fill:#424242;" d="M247.201,478.023c0.182,0.083,0.481,0.133,0.68,0.133c0.547,0,0.912-0.182,1.194-0.846
				l0.531-1.211l-3.351-8.095h1.344l2.671,6.569l2.654-6.569h1.36l-4.014,9.637c-0.481,1.161-1.294,1.609-2.356,1.625
				c-0.265,0-0.68-0.05-0.912-0.116L247.201,478.023z"/>
		</g>
	</g>
</g>
</svg>
